# xmcd CD database file
#
# Track frame offsets:
#	150
#	22083
#	45618
#	69795
#	108253
#	130665
#	158695
#	174350
#	200893
#	215753
#	236958
#	275750
#
# Disc length: 4192 seconds
#
# Revision: 1
# Processed by: cddbd v1.4PL0 Copyright (c) Steve Scherf et al.
# Submitted via: CDex 1.50Beta7
#
DISCID=af105e0c
DTITLE=Northern Illinois University Jazz Ensemble - On the road with The Mode
DYEAR=1900
DGENRE=Jazz
TTITLE0=Green Dolphin Street
TTITLE1=Muttnik
TTITLE2=Have you met Miss Jones
TTITLE3=Dear Old Stockholm
TTITLE4=El Gordito
TTITLE5=Going to Chicago/More than You Know
TTITLE6=Lullaby of Birdland
TTITLE7=Thanks, Sammy
TTITLE8=April in Paris
TTITLE9=St. Louis Blues
TTITLE10=Last Season
TTITLE11=Santos
EXTD=
EXTT0=
EXTT1=
EXTT2=
EXTT3=
EXTT4=
EXTT5=
EXTT6=
EXTT7=
EXTT8=
EXTT9=
EXTT10=
EXTT11=
PLAYORDER=
